C:\Users\u0150099\Documents\PredSimResults\Fal_s1_mtp_v2\Fal_s1_mtp_v2_job149.mot
version=1
nRows=4
nColumns=124
inDegrees=true
endheader
                time	         pelvis_tilt	         pelvis_list	     pelvis_rotation	           pelvis_tx	           pelvis_ty	           pelvis_tz	       hip_flexion_r	     hip_adduction_r	      hip_rotation_r	        knee_angle_r	       ankle_angle_r	    subtalar_angle_r	         mtp_angle_r	       hip_flexion_l	     hip_adduction_l	      hip_rotation_l	        knee_angle_l	       ankle_angle_l	    subtalar_angle_l	         mtp_angle_l	    lumbar_extension	      lumbar_bending	     lumbar_rotation	          arm_flex_r	           arm_add_r	           arm_rot_r	        elbow_flex_r	          arm_flex_l	           arm_add_l	           arm_rot_l	        elbow_flex_l	glut_med1_r/activation	glut_med2_r/activation	glut_med3_r/activation	glut_min1_r/activation	glut_min2_r/activation	glut_min3_r/activation	semimem_r/activation	semiten_r/activation	bifemlh_r/activation	bifemsh_r/activation	    sar_r/activation	add_long_r/activation	add_brev_r/activation	add_mag1_r/activation	add_mag2_r/activation	add_mag3_r/activation	    tfl_r/activation	   pect_r/activation	   grac_r/activation	glut_max1_r/activation	glut_max2_r/activation	glut_max3_r/activation	iliacus_r/activation	  psoas_r/activation	quad_fem_r/activation	    gem_r/activation	   peri_r/activation	rect_fem_r/activation	vas_med_r/activation	vas_int_r/activation	vas_lat_r/activation	med_gas_r/activation	lat_gas_r/activation	 soleus_r/activation	tib_post_r/activation	flex_dig_r/activation	flex_hal_r/activation	tib_ant_r/activation	per_brev_r/activation	per_long_r/activation	per_tert_r/activation	ext_dig_r/activation	ext_hal_r/activation	glut_med1_l/activation	glut_med2_l/activation	glut_med3_l/activation	glut_min1_l/activation	glut_min2_l/activation	glut_min3_l/activation	semimem_l/activation	semiten_l/activation	bifemlh_l/activation	bifemsh_l/activation	    sar_l/activation	add_long_l/activation	add_brev_l/activation	add_mag1_l/activation	add_mag2_l/activation	add_mag3_l/activation	    tfl_l/activation	   pect_l/activation	   grac_l/activation	glut_max1_l/activation	glut_max2_l/activation	glut_max3_l/activation	iliacus_l/activation	  psoas_l/activation	quad_fem_l/activation	    gem_l/activation	   peri_l/activation	rect_fem_l/activation	vas_med_l/activation	vas_int_l/activation	vas_lat_l/activation	med_gas_l/activation	lat_gas_l/activation	 soleus_l/activation	tib_post_l/activation	flex_dig_l/activation	flex_hal_l/activation	tib_ant_l/activation	per_brev_l/activation	per_long_l/activation	per_tert_l/activation	ext_dig_l/activation	ext_hal_l/activation	 ercspn_r/activation	 ercspn_l/activation	 intobl_r/activation	 intobl_l/activation	 extobl_r/activation	 extobl_l/activation	
          0.96352262	         -2.64136308	         -2.24742442	          5.94622387	          1.26833401	          0.90594884	          0.00038324	         29.40356722	          2.97132659	         -4.33909575	        -13.17892043	         11.20018817	         -3.48791950	          0.18031838	        -16.76411164	         -1.94698365	          6.51578413	         -3.30120552	          9.13752826	         18.49675796	          5.14033735	         -3.06495946	          1.58095479	         -2.57095852	        -28.43829861	        -13.48620260	         15.37244948	         73.38771591	         13.78132890	        -13.72234399	         14.28135989	         22.02753617	          0.05802978	          0.05802836	          0.05000128	          0.05802958	          0.05802937	          0.05802607	          0.05802864	          0.05719500	          0.22199930	          0.05000159	          0.05000267	          0.16742109	          0.35869188	          0.20179560	          0.25342175	          0.24047505	          0.05802063	          0.05813277	          0.05803086	          0.05000318	          0.05000305	          0.20265152	          0.05000662	          0.05000216	          0.33993587	          0.05000367	          0.05000314	          0.05557212	          0.14027819	          0.13861745	          0.11938861	          0.05000072	          0.05000120	          0.05000161	          0.05000036	          0.05000304	          0.05000228	          0.62985689	          0.29419292	          0.15832502	          0.53093206	          0.52535312	          0.35489786	          0.06730454	          0.08231493	          0.09613287	          0.13173073	          0.12229604	          0.10528561	          0.05002386	          0.05000558	          0.05000196	          0.05798188	          0.08829423	          0.13886988	          0.05505942	          0.05001506	          0.05000944	          0.05000325	          0.59119652	          0.10082744	          0.05802628	          0.05001761	          0.05000709	          0.05000452	          0.26301017	          0.91402639	          0.06113269	          0.05002180	          0.09075589	          0.20051634	          0.05000174	          0.05000163	          0.05000179	          0.27000449	          0.36702469	          0.27333927	          0.20683817	          0.26827525	          0.32253928	          0.05000072	          0.05803250	          0.07656676	          0.05000882	          0.05000128	          0.05000382	          0.05000020	          0.05000005	          0.14093760	          0.07657132	          0.15149970	          0.10403511	
          0.97315785	         -2.68837958	         -2.29376657	          6.36419033	          1.28148796	          0.90468902	          0.00059692	         29.09991067	          3.21823192	         -4.26491146	        -13.21732816	         10.80842171	         -3.67159287	          0.19558651	        -16.37788458	         -2.15376047	          6.40259097	         -5.41163900	          9.22356429	         19.21161528	          5.70162670	         -3.23062076	          1.69935666	         -2.76003049	        -29.19619466	        -13.45790664	         15.63086733	         73.97597678	         14.82507579	        -13.71265844	         15.12352672	         21.05476955	          0.05000051	          0.05000096	          0.09486649	          0.05000092	          0.05000114	          0.05000094	          0.05000033	          0.05000078	          0.20147797	          0.05000124	          0.05034319	          0.14425716	          0.34992236	          0.48030738	          0.31464219	          0.23157095	          0.05000085	          0.05011045	          0.05000927	          0.05802853	          0.05803064	          0.24761112	          0.05000221	          0.06735147	          0.59809720	          0.18145509	          0.11085311	          0.07816026	          0.13454329	          0.14105830	          0.11216541	          0.05000006	          0.05000014	          0.05000002	          0.05021497	          0.05001011	          0.05000503	          0.66362998	          0.32329230	          0.18452558	          0.46771477	          0.53736060	          0.30579250	          0.05799223	          0.07092618	          0.08283198	          0.11350414	          0.10537506	          0.09071889	          0.05000502	          0.05000123	          0.05000203	          0.05000055	          0.07607828	          0.15529638	          0.21055617	          0.17469396	          0.06737051	          0.06735068	          0.59877226	          0.08688734	          0.05000507	          0.05007657	          0.06731068	          0.06734837	          0.22661834	          0.84044859	          0.09071457	          0.09068194	          0.07820019	          0.17277181	          0.07632897	          0.07305059	          0.06736010	          0.23264479	          0.31624092	          0.27930349	          0.21316596	          0.26240761	          0.32160729	          0.05000064	          0.05000328	          0.06597266	          0.05000110	          0.05000043	          0.05000228	          0.05000011	          0.05273498	          0.12143650	          0.07245550	          0.13053714	          0.08964018	
          0.98279307	         -2.73498583	         -2.34552062	          6.74666355	          1.29463994	          0.90356558	          0.00077860	         28.74612982	          3.39221794	         -4.10773699	        -13.80444658	         10.42695798	         -3.86378150	          0.17540505	        -15.78737596	         -2.33054394	          6.25417658	         -7.88741493	          9.18905990	         19.83120828	          6.29020991	         -3.41490987	          1.83946234	         -2.93745842	        -29.81730919	        -13.44971185	         15.92575685	         74.36205039	         15.81273938	        -13.68012460	         16.03260138	         20.07488494	          0.30734245	          0.05000066	          0.28792575	          0.05000300	          0.05000198	          0.25573722	          0.09553370	          0.05000239	          0.20564742	          0.05000066	          0.05000317	          0.12429739	          0.42654768	          0.41384929	          0.27110791	          0.27015239	          0.05000631	          0.07823668	          0.14580201	          0.05000072	          0.05000148	          0.24602950	          0.05803264	          0.05803318	          0.51534052	          0.15634818	          0.15216235	          0.06734553	          0.11592719	          0.12154071	          0.09664561	          0.06853045	          0.07813901	          0.05869156	          0.05802963	          0.05802721	          0.05803053	          0.57180555	          0.31146405	          0.15899432	          0.40299916	          0.54509070	          0.26348120	          0.11865125	          0.06111282	          0.07137093	          0.09779988	          0.09079577	          0.07816691	          0.05000842	          0.05000546	          0.05000497	          0.05000103	          0.06555550	          0.15936734	          0.22182418	          0.15052399	          0.05805303	          0.05803288	          0.61275368	          0.16401455	          0.05804724	          0.05800099	          0.05802591	          0.05803192	          0.19526196	          0.75435748	          0.07816318	          0.07813539	          0.06738005	          0.14886593	          0.06576790	          0.06294311	          0.05804001	          0.20045443	          0.27248372	          0.27496386	          0.18580291	          0.22610380	          0.27711237	          0.05000077	          0.05000211	          0.07081267	          0.05000165	          0.05000084	          0.05000337	          0.05119391	          0.08222755	          0.10463423	          0.06243007	          0.11247511	          0.07723709	
          0.99242830	         -2.78069272	         -2.39966281	          7.08815024	          1.30779360	          0.90261855	          0.00097796	         28.29618930	          3.52337485	         -3.94594714	        -14.41172632	         10.28758268	         -4.03759618	          0.17341335	        -15.00416246	         -2.48534249	          6.09081672	        -10.69283325	          8.94497938	         20.35858516	          6.90877091	         -3.61062833	          1.98886766	         -3.10335754	        -30.29343139	        -13.45565513	         16.25818519	         74.53486438	         16.70850052	        -13.63656821	         16.92621674	         19.16097695	          0.35985704	          0.30453077	          0.36442861	          0.19062649	          0.23798076	          0.22035519	          0.09704370	          0.14183249	          0.17977376	          0.12010675	          0.05803047	          0.10709890	          0.36752774	          0.35658702	          0.23359748	          0.28146548	          0.05000451	          0.06741273	          0.18223545	          0.24000517	          0.18445114	          0.25225192	          0.05000372	          0.05000505	          0.44403586	          0.13471546	          0.13110974	          0.05802722	          0.09988682	          0.10472362	          0.08327316	          0.05904818	          0.06732732	          0.05057061	          0.05000067	          0.05000198	          0.05000265	          0.68474704	          0.35589275	          0.17893009	          0.62648789	          0.57693925	          0.41898573	          0.10223611	          0.05265736	          0.06149569	          0.22907203	          0.07823484	          0.06735204	          0.05002940	          0.05000135	          0.05000090	          0.05000274	          0.07816565	          0.13733796	          0.19113192	          0.12969730	          0.05002210	          0.05000413	          0.62846032	          0.14134898	          0.05001829	          0.05000744	          0.05000411	          0.05000342	          0.16824426	          0.64997937	          0.06734818	          0.06732508	          0.05805738	          0.12826787	          0.05666811	          0.05423415	          0.05000952	          0.17271815	          0.23478102	          0.23691812	          0.18313746	          0.19482276	          0.23877205	          0.05000098	          0.06727397	          0.09070840	          0.05000431	          0.05000419	          0.05000443	          0.11582726	          0.11767906	          0.09015640	          0.05379183	          0.09691227	          0.06655008	
